<svg width="300" height="89" viewBox="0 0 300 89" fill="none" xmlns="http://www.w3.org/2000/svg">
<path fill-rule="evenodd" clip-rule="evenodd" d="M44.2857 88.4511C68.7441 88.4511 88.5714 68.6507 88.5714 44.2255C88.5714 19.8004 68.7441 0 44.2857 0C19.8274 0 0 19.8004 0 44.2255C0 68.6507 19.8274 88.4511 44.2857 88.4511ZM40.918 45.6966C41.9849 48.0823 47.6331 55.7963 55.0996 55.7963C61.2739 55.7963 67.7437 51.8686 70.7898 50.0193C71.4273 49.6321 71.9151 49.3361 72.2184 49.1861C74.9992 47.8133 77.8392 50.0156 77.0012 52.9981C74.5584 61.6916 65.542 78.1659 43.7706 78.1659C24.737 78.1659 15.3812 63.4928 13.4232 58.5183C12.7505 56.9482 12.3146 55.2363 12.1669 53.4281C12.1424 53.1277 12.1262 52.8289 12.118 52.5314L12.1436 51.055C12.6167 43.5057 18.8011 37.2896 26.2092 36.6859C32.5747 36.1673 38.3459 39.9455 40.918 45.6966Z" fill="white"/>
<path fill-rule="evenodd" clip-rule="evenodd" d="M44.2857 88.4511C68.7441 88.4511 88.5714 68.6507 88.5714 44.2255C88.5714 19.8004 68.7441 0 44.2857 0C19.8274 0 0 19.8004 0 44.2255C0 68.6507 19.8274 88.4511 44.2857 88.4511ZM40.918 45.6966C41.9849 48.0823 47.6331 55.7963 55.0996 55.7963C61.2739 55.7963 67.7437 51.8686 70.7898 50.0193C71.4273 49.6321 71.9151 49.3361 72.2184 49.1861C74.9992 47.8133 77.8392 50.0156 77.0012 52.9981C74.5584 61.6916 65.542 78.1659 43.7706 78.1659C24.737 78.1659 15.3812 63.4928 13.4232 58.5183C12.7505 56.9482 12.3146 55.2363 12.1669 53.4281C12.1424 53.1277 12.1262 52.8289 12.118 52.5314L12.1436 51.055C12.6167 43.5057 18.8011 37.2896 26.2092 36.6859C32.5747 36.1673 38.3459 39.9455 40.918 45.6966Z" fill="url(#paint0_linear_4281_41209)"/>
<path d="M226.754 42.3363L198.967 51.3722C201.94 56.6756 207.288 58.3125 213.387 56.3324C215.538 55.6309 217.098 54.0555 218.755 52.5131C221.604 49.7747 226.469 48.2923 230.293 49.6362C229.009 56.7542 223.141 63.2768 215.733 65.6866C203.621 69.6257 191.555 63.909 187.421 51.1737C183.221 38.1741 190.192 26.6541 201.849 22.8596C213.441 19.0899 225.292 24.4014 229.422 37.12V37.1531C230.098 39.2886 228.89 41.6462 226.754 42.3363ZM217.946 35.9461C215.526 30.5726 208.861 29.6137 204.182 31.1389C199.566 32.6394 195.461 36.4132 196.25 43.0019L217.946 35.9461Z" fill="#323640"/>
<path d="M177.196 39.2772V63.4117C177.196 64.2766 176.852 65.1061 176.24 65.7175C175.627 66.3289 174.797 66.6726 173.931 66.6726H166.616V38.2256C166.616 36.3402 165.866 34.5321 164.531 33.199C163.196 31.8658 161.386 31.1169 159.498 31.1169C157.61 31.1169 155.8 31.8658 154.464 33.199C153.129 34.5321 152.38 36.3402 152.38 38.2256V63.4117C152.38 64.2766 152.035 65.1061 151.423 65.7175C150.811 66.3289 149.98 66.6726 149.114 66.6726H141.592V38.2256C141.592 36.3413 140.842 34.5342 139.508 33.2018C138.174 31.8695 136.364 31.1209 134.478 31.1209C133.542 31.1193 132.615 31.3019 131.751 31.6582C130.886 32.0144 130.1 32.5374 129.438 33.1973C128.775 33.8571 128.25 34.6408 127.891 35.5036C127.532 36.3664 127.347 37.2914 127.347 38.2256V63.4117C127.347 64.2766 127.003 65.1061 126.391 65.7175C125.778 66.3289 124.948 66.6726 124.082 66.6726H116.78V39.2772C116.78 34.5898 118.644 30.0943 121.963 26.7798C125.282 23.4653 129.784 21.6033 134.478 21.6033C139.375 21.6033 143.788 24.2487 146.988 27.4443C150.192 24.2487 154.616 21.6033 159.502 21.6033C164.195 21.6044 168.695 23.4669 172.014 26.7813C175.332 30.0957 177.196 34.5905 177.196 39.2772Z" fill="#323640"/>
<path d="M299.927 39.2772V63.4117C299.927 64.2766 299.582 65.1061 298.97 65.7175C298.358 66.3289 297.527 66.6726 296.661 66.6726H289.347V38.2256C289.347 36.3402 288.597 34.5321 287.262 33.199C285.927 31.8658 284.116 31.1169 282.229 31.1169C280.34 31.1169 278.53 31.8658 277.195 33.199C275.86 34.5321 275.11 36.3402 275.11 38.2256V63.4117C275.11 64.2766 274.766 65.1061 274.154 65.7175C273.541 66.3289 272.711 66.6726 271.845 66.6726H264.323V38.2256C264.321 36.3416 263.571 34.5351 262.238 33.203C260.904 31.8709 259.095 31.122 257.208 31.1209C255.321 31.1209 253.512 31.8695 252.178 33.2018C250.843 34.5342 250.094 36.3413 250.094 38.2256V63.4117C250.094 64.2766 249.75 65.1061 249.138 65.7175C248.525 66.3289 247.695 66.6726 246.829 66.6726H239.51V39.2772C239.509 36.9561 239.967 34.6576 240.856 32.513C241.745 30.3685 243.049 28.4199 244.693 26.7786C246.336 25.1374 248.287 23.8355 250.435 22.9475C252.582 22.0595 254.884 21.6027 257.208 21.6033C262.106 21.6033 266.518 24.2487 269.718 27.4443C272.922 24.2487 277.331 21.6033 282.229 21.6033C286.922 21.6044 291.422 23.4669 294.74 26.7813C298.058 30.0957 299.922 34.5905 299.922 39.2772H299.927Z" fill="#323640"/>
<defs>
<linearGradient id="paint0_linear_4281_41209" x1="73.1461" y1="-8.06446e-06" x2="13.2979" y2="88.5266" gradientUnits="userSpaceOnUse">
<stop stop-color="#EB2487"/>
<stop offset="1" stop-color="#F93939"/>
</linearGradient>
</defs>
</svg>
